<?xml version="1.0" standalone="no"?>
<!DOCTYPE svg PUBLIC "-//W3C//DTD SVG 20010904//EN"
 "http://www.w3.org/TR/2001/REC-SVG-20010904/DTD/svg10.dtd">
<svg version="1.0" xmlns="http://www.w3.org/2000/svg"
 width="133.000000pt" height="133.000000pt" viewBox="0 0 133.000000 133.000000"
 preserveAspectRatio="xMidYMid meet">
<metadata>
Created by potrace 1.14, written by Peter Selinger 2001-2017
</metadata>
<g transform="translate(0.000000,133.000000) scale(0.100000,-0.100000)"
fill="#000000" stroke="none">
<path d="M579 1326 c-2 -2 -24 -7 -48 -11 -97 -14 -242 -90 -324 -169 -216
-209 -267 -530 -126 -797 64 -120 165 -216 294 -279 108 -53 186 -69 315 -65
148 4 253 41 370 128 168 126 259 299 266 507 10 309 -171 564 -470 662 -55
18 -264 36 -277 24z"/>
</g>
</svg>
